<mxfile host="app.diagrams.net" modified="2024-03-31T21:16:25.503Z" agent="Mozilla/5.0 (Windows NT 10.0; Win64; x64) AppleWebKit/537.36 (KHTML, like Gecko) Chrome/123.0.0.0 Safari/537.36" version="24.2.1" etag="7t8GuPzgMvsp9PV2dm-S" type="github">
  <diagram name="Page-1" id="uICYZDqnrUUYxP_v03nN">
    <mxGraphModel>
      <root>
        <mxCell id="0" />
        <mxCell id="1" parent="0" />
      </root>
    </mxGraphModel>
  </diagram>
</mxfile>
